<svg id="Warstwa_1" data-name="Warstwa 1" xmlns="http://www.w3.org/2000/svg" viewBox="0 0 154.63709 145.90528"><defs><style>.cls-1{fill:#f18a65;}</style></defs><title>2_1a</title><g id="favorite"><path class="cls-1" d="M77.31648,145.90528l-14.41284-14.417C26.50462,99.30266,0,75.85912,0,45.37613A44.891,44.891,0,0,1,45.37407,0,48.77164,48.77164,0,0,1,77.31648,12.21752,48.77417,48.77417,0,0,1,109.263,0a44.891,44.891,0,0,1,45.37407,45.37613c0,30.483-26.50462,53.92653-63.184,86.376ZM45.37407,12.66483c-18.64682,0-32.70924,14.06242-32.70924,32.7113,0,23.627,21.28533,43.6075,58.9129,76.89391l5.73463,5.72638,5.46666-5.46253c37.90791-33.55026,59.19324-53.53076,59.19324-77.15776,0-18.64888-14.06242-32.7113-32.70924-32.7113A36.46638,36.46638,0,0,0,82.15237,25.32966l-4.83589,5.714-4.83588-5.714A36.45773,36.45773,0,0,0,45.37407,12.66483Z"/></g></svg>