<svg xmlns="http://www.w3.org/2000/svg" width="32.314" height="788.443" viewBox="0 0 32.314 788.443">
    <defs>
        <style>
            .cls-1{fill:#131925}
        </style>
    </defs>
    <g id="Group_118" data-name="Group 118" transform="translate(-961.853 -928.112)">
        <g id="Group_114" data-name="Group 114">
            <path id="Path_26" d="M961.852 1716.555v-35.7l16.317-10.62 16 10.03v36.286l-16.157-9.145z" class="cls-1" data-name="Path 26"/>
            <path id="Path_27" d="M961.852 1642.438v-35.7l16.317-10.62 16 10.03v36.286l-16.157-9.145z" class="cls-1" data-name="Path 27"/>
            <path id="Path_28" d="M961.852 1568.321v-35.7L978.17 1522l16 10.03v36.286l-16.157-9.145z" class="cls-1" data-name="Path 28"/>
        </g>
        <g id="Group_115" data-name="Group 115">
            <path id="Path_29" d="M961.852 1493.885v-35.7l16.317-10.62 16 10.03v36.286l-16.157-9.145z" class="cls-1" data-name="Path 29"/>
            <path id="Path_30" d="M961.852 1419.768v-35.7l16.317-10.62 16 10.03v36.286l-16.157-9.145z" class="cls-1" data-name="Path 30"/>
            <path id="Path_31" d="M961.852 1345.651v-35.7l16.317-10.62 16 10.03v36.286l-16.157-9.145z" class="cls-1" data-name="Path 31"/>
        </g>
        <g id="Group_116" data-name="Group 116">
            <path id="Path_32" d="M961.852 1271.216v-35.7l16.317-10.62 16 10.03v36.286l-16.157-9.145z" class="cls-1" data-name="Path 32"/>
            <path id="Path_33" d="M961.852 1197.1v-35.7l16.317-10.62 16 10.03v36.29l-16.157-9.145z" class="cls-1" data-name="Path 33"/>
            <path id="Path_34" d="M961.852 1122.982v-35.7l16.317-10.62 16 10.03v36.286l-16.157-9.145z" class="cls-1" data-name="Path 34"/>
        </g>
        <g id="Group_117" data-name="Group 117">
            <path id="Path_35" d="M961.852 1048.546v-35.7l16.317-10.62 16 10.03v36.286l-16.159-9.142z" class="cls-1" data-name="Path 35"/>
            <path id="Path_36" d="M961.852 974.429v-35.7l16.317-10.62 16 10.03v36.286l-16.157-9.145z" class="cls-1" data-name="Path 36"/>
        </g>
    </g>
</svg>
