<svg version="1.1" id="Warstwa_1" xmlns:x="&amp;ns_extend;" xmlns:i="&amp;ns_ai;" xmlns:graph="&amp;ns_graphs;" xmlns="http://www.w3.org/2000/svg" xmlns:xlink="http://www.w3.org/1999/xlink" x="0px" y="0px" viewBox="0 0 1080 1920" style="enable-background:new 0 0 1080 1920;" xml:space="preserve">
<metadata>
	<sfw xmlns="&amp;ns_sfw;">
		<slices></slices>
		<slicesourcebounds bottomleftorigin="true" height="5606.6625977" width="7252.1147461" x="-1898" y="-4532.590332">
			</slicesourcebounds>
		<optimizationsettings>
			<targetsettings fileformat="PNG24Format" targetsettingsid="0">
				<png24format filtered="false" interlaced="false" mattecolor="#FFFFFF" nomattecolor="false" transparency="false">
					</png24format>
			</targetsettings>
		</optimizationsettings>
	</sfw>
</metadata>
<g>
	<polygon fill="#cecece" points=" 1074.9213867,553.2053223 1073.9448242,554.1972657 1051.0419922,584.1982423 1030.0498047,617.0976564 1006.6196289000001,660.2602541 985.6875000000001,695.7797853 957.7314453000001,732.3786623 926.1909180000001,772.6279299 900.0556641000002,808.9450686 863.1418457000002,860.8623049 832.4858398000002,899.5891115000001 799.7736816000003,938.0961916000001 796.9753418000003,941.6960451000001 797.5021973000003,942.3393556000001 840.3520508000003,978.2707521000001 885.5202637000002,1014.4746095 924.1640625000002,1047.5937501 942.1286621000003,1063.5283204 942.8227539000003,1064.7197266 954.9685059000003,1079.2775879 965.8398438000003,1090.8945313000002 967.0202637000002,1091.2258301000002 967.0263672000002,1091.2216797 967.4938965000002,1092.3374024000002 972.8442383000003,1097.8476563000002 976.9011231000003,1101.9765625000002 982.3935547000003,1106.9650879000003 984.1335449000003,1108.9880371000004 984.6777344000003,1109.2944336000003 984.9653321000003,1110.0405274000002 1003.1210938000003,1127.5837403000003 1004.0000000000002,1125.8300782000003 1003.1210938000003,1127.5837403000003 1004.3168946000003,1128.3229981000002 1004.3300782000003,1128.3471680000002 1004.7326661000003,1129.2482910000003 1021.6132813000003,1145.5012207000004 1037.8747559000003,1161.2026367000005 1042.1931153000003,1165.1025390000004 1050.5327149000002,1173.2583007000005 1073.1513672,1195.9658202000005 1078.1301270000001,1200.8171386000006 1079.0961915,1201.2990722000006 1079.4675294,1202.0620117000005 1080.0000001,1202.8989258000006 1080.0000001,546.918457 1074.9213867,553.2053223"></polygon>
</g>
<g>
	<polygon fill="#cecece" points=" 818.1704102,1090.4284668 829.0393067,1105.2773438 816.4248047,1124.7414551 827.3688965,1140.8242188 814.6635742,1159.7770997 825.6586914,1177.1198731 812.8630370999999,1195.4970704 823.3713379,1214.9711915 810.4130858999999,1232.9326173 821.5268553999999,1253.0270997 820.2106932999999,1254.8686524 809.4897459999999,1269.0063476999999 809.2390135999999,1271.8879395 818.9619139999999,1290.4770508 818.6435545999999,1293.3486328 811.6674803999999,1302.1821289 806.5800780999999,1308.6740723 817.8017577999999,1331.6982422 804.6457518999999,1347.675293 815.9296873999999,1372.1755371 831.9875486999999,1369.2285156 820.5688475,1345.3798828000001 833.6171873,1329.7329101 822.2553709,1307.3383789 835.2690428,1291.0327148 834.7448729,1289.9511717999999 824.7431639,1271.5124511 824.9711912,1268.6318359 830.9074705,1260.9279784999999 836.8813475000001,1253.1079100999998 836.1865233000001,1251.8076170999998 826.5837401000001,1235.1103514999998 826.7023924000001,1231.8959959999997 832.2868651000001,1224.4020994999998 838.5041503000001,1215.9294432999998 837.4755858000001,1214.0009764999998 828.8779296000001,1198.7084959999997 829.0517577000002,1195.1359861999997 839.5727538000002,1180.3803709999997 839.6125487000002,1177.4135740999998 830.2001952000002,1163.0537107999999 830.2133788000002,1160.8417966999998 835.9365233000002,1152.5090329999998 842.1086424000002,1143.4968259999998 831.0676268000002,1127.6801755999998 843.5844725000002,1108.7734372999998 832.6049803000002,1094.1264645999997 833.9672850000002,1091.8457028999997 841.7365721000002,1079.1596676999995 842.1357420000002,1077.4614254999995 826.2216795000002,1077.4614254999995 818.1704102,1090.4284668"></polygon>
</g>
<g>
	<polygon fill="#cecece" points=" 164.9447021,1090.4284668 154.0758056,1105.2773438 166.69030759999998,1124.7414551 155.7462158,1140.8242188 168.4515381,1159.7770997 157.45642089999998,1177.1198731 170.25207519999998,1195.4970704 159.74377439999998,1214.9711915 172.70202639999997,1232.9326173 161.58825689999998,1253.0270997 162.904419,1254.8686524 173.6253663,1269.0063476999999 173.8760987,1271.8879395 164.15319829999999,1290.4770508 164.47155769999998,1293.3486328 171.44763189999998,1302.1821289 176.53503419999998,1308.6740723 165.31335449999997,1331.6982422 178.46936039999997,1347.675293 167.18542489999996,1372.1755371 151.12756359999997,1369.2285156 162.54626479999996,1345.3798828000001 149.49792499999995,1329.7329101 160.85974139999996,1307.3383789 147.84606949999997,1291.0327148 148.37023939999997,1289.9511717999999 158.37194839999998,1271.5124511 158.14392109999997,1268.6318359 152.20764179999998,1260.9279784999999 146.2337648,1253.1079100999998 146.928589,1251.8076170999998 156.5313722,1235.1103514999998 156.41271989999998,1231.8959959999997 150.8282472,1224.4020994999998 144.610962,1215.9294432999998 145.6395265,1214.0009764999998 154.23718269999998,1198.7084959999997 154.06335459999997,1195.1359861999997 143.54235849999998,1180.3803709999997 143.50256359999997,1177.4135740999998 152.91491709999997,1163.0537107999999 152.90173349999998,1160.8417966999998 147.178589,1152.5090329999998 141.00646989999998,1143.4968259999998 152.0474855,1127.6801755999998 139.5306398,1108.7734372999998 150.510132,1094.1264645999997 149.1478273,1091.8457028999997 141.37854019999997,1079.1596676999995 140.97937029999997,1077.4614254999995 156.89343279999997,1077.4614254999995 164.9447021,1090.4284668"></polygon>
</g>
<polygon fill="#cecece" points=" 328.7129822,1263.4342041 243.3034058,1345.6512450999999 243.3034058,1079.7230224 328.7129822,1263.4342041"></polygon>
<polygon style="fill:#565960;" points="0,788.5049438 18.333334,782.333313 136.085495,813.666687 165.3065796,906.3579102 
	209.6666718,947.666687 43.6666679,1105 0,1047.666626 0,899 "></polygon>
<circle style="fill:#131925;" cx="498.3626404" cy="1243.1247559" r="56.6666679"></circle>
<circle style="fill:#131925;" cx="373.9608154" cy="877.7443237" r="53.0650635"></circle>
<circle style="fill:#131925;" cx="621.8339233" cy="877.7443237" r="53.0650635"></circle>
<circle style="fill:#131925;" cx="498.3626404" cy="1088.4581299" r="21.7592602"></circle>
<circle style="fill:#131925;" cx="498.3626404" cy="1397.7913818" r="21.7592602"></circle>
<circle style="fill:#131925;" cx="693.5029907" cy="1469.5679932" r="21.7592602"></circle>
<circle style="fill:#131925;" cx="816.9737549" cy="1377.4320068" r="21.7592602"></circle>
<circle style="fill:#131925;" cx="295.4639282" cy="1469.5679932" r="21.7592602"></circle>
<circle style="fill:#131925;" cx="167.7789307" cy="1377.4320068" r="21.7592602"></circle>
<polygon fill="#cecece" points=" 381.1669922,416.7089844 380.98242189999996,397.7333985 380.91467289999997,392.2490235 380.4057618,390.04931650000003 378.4641114,387.3420411 375.15185549999995,384.9020997 370.03881839999997,382.6625977 362.45581059999995,380.7502442 357.10705569999993,380.0427247 352.29699709999994,379.763672 345.62426759999994,379.8850099 341.15942379999996,380.3044435 336.02587889999995,381.143799 329.34460449999995,383.0231935 323.09252929999997,386.13452159999997 319.7717285,389.5068361 318.7705078,392.8037111 318.7358398,395.7951662 318.5717773,414.74316419999997 318.3498535,440.28417979999995 318.1251221,466.21289069999995 318.0212403,478.37402349999996 317.9099122,491.5046387 318.293213,493.41992189999996 319.5324708,495.27783209999996 322.2678224,497.42309579999994 328.0915529,499.9726562999999 337.7263185,502.12695319999995 342.32055679999996,502.64965829999994 349.373047,503.0041504999999 359.7722169,502.53173839999994 366.7524415,501.47094739999994 372.76660169999997,499.8564453999999 377.89526379999995,497.51000989999994 380.50927749999994,495.35009779999996 381.66247569999996,493.4106447 381.92260749999997,491.5825197 381.1669922,416.7089844"></polygon>
<polygon fill="#cecece" points=" 689.3815918,416.7089844 689.1970215,397.7333985 689.1292725,392.2490235 688.6203614,390.04931650000003 686.678711,387.3420411 683.3664551,384.9020997 678.253418,382.6625977 670.6704102,380.7502442 665.3216553,380.0427247 660.5115966999999,379.763672 653.8388672,379.8850099 649.3740233999999,380.3044435 644.2404785,381.143799 637.5592041,383.0231935 631.3071289,386.13452159999997 627.9863280999999,389.5068361 626.9851074,392.8037111 626.9504393999999,395.7951662 626.7863768999999,414.74316419999997 626.5644530999999,440.28417979999995 626.3397216999999,466.21289069999995 626.2358399,478.37402349999996 626.1245117999999,491.5046387 626.5078126,493.41992189999996 627.7470704,495.27783209999996 630.4824219999999,497.42309579999994 636.3061524999999,499.9726562999999 645.9409181,502.12695319999995 650.5351564,502.64965829999994 657.5876466,503.0041504999999 667.9868164999999,502.53173839999994 674.9670411,501.47094739999994 680.9812013,499.8564453999999 686.1098634,497.51000989999994 688.7238771,495.35009779999996 689.8770753,493.4106447 690.1372071,491.5825197 689.3815918,416.7089844"></polygon>
<polygon fill="#cecece" points=" 609.3410645,643.1992188 608.4816895,638.1152344000001 608.4853516000001,637.8952637000001 608.7265625000001,633.8374024000001 608.6542969000001,632.8806153 607.2580567000001,629.3337403 606.7973633000001,628.2192383 604.3227539000002,625.078125 603.8984375000002,624.1030273 604.5488281000003,621.7941894 603.9877929000003,618.4753417000001 601.7480468000002,616.2561034 598.6982421000002,613.0368651 599.7712401000002,611.7412108 599.3776854000002,608.5126951999999 597.3769530000003,607.6577146999999 593.4450682000003,605.5996091999999 591.7751463000003,604.0234373 589.8369139000004,602.0317381 589.6762694000004,601.8876951 586.1794432000004,600.3911131 584.4936522000004,598.4594725 583.9011229000004,597.2622068999999 583.3757323000003,596.3808591999999 583.0136718000003,595.7827146999999 580.8442382000003,595.2126463 576.9338378000003,593.3740233 576.5498046000004,592.9853514 573.1040038000003,588.6469725000001 572.9162597000003,588.2509764 568.1689452000003,585.0949705 564.5468749000003,582.8535154 564.4780272000003,582.6459959 563.6235350000003,581.6855467 562.7014159000003,580.9592283000001 562.0527343000002,580.6328123000001 560.2304687000002,580.340576 557.3444824000002,578.5136717 556.8234863000001,577.9631346 556.7573242000001,577.8749998 554.9628906,575.5173338 554.1018066,574.8994139 551.5012207,572.6674803 550.6640625,571.6706541 548.5952148,570.4960936 545.4785156,570.9755858 542.9445801,569.6354979 540.8696289000001,567.3837889 539.3842773000001,565.2744139 538.8732910000001,564.602783 538.3718262000001,563.7893064000001 537.4719239000001,562.4719236000001 535.8061524000001,562.3310545 533.8967286000001,562.5642088000001 531.9636231000001,563.2265623000001 531.4221192000001,563.3083494000001 529.2700196000001,564.2541502000001 526.6782227000001,564.7475584000001 522.7946778000002,564.1997068000002 518.0073243000002,563.2780759000002 516.3273927000001,563.1711423000002 514.6120607000001,563.3127439000001 511.50903340000013,562.2451169000001 508.27392600000013,560.9152829000001 507.4606936000001,560.8540036 502.5349124000001,562.1003415 497.8410647000001,561.899902 496.94677760000013,562.030029 495.5053714000001,563.3403317 494.7338870000001,563.5532223 493.0549319000001,562.7585446 491.8618167000001,562.259277 488.52783230000006,561.6716305 487.0195315000001,561.6789547 484.3059085000001,561.9685055 482.5375980000001,562.6745602 481.3996585000001,564.4199215 479.1367190000001,566.2607418 477.12939480000006,567.7573238 476.05981470000006,568.5742183 474.52685570000006,570.0473628 474.09033230000006,572.2900386 473.13159210000003,574.4519038 471.92163120000004,575.0468745 470.8696292,575.2902826999999 468.77392610000004,576.1716303999999 468.1804202,578.4611811999999 467.5734866,581.3569332 466.2734378,582.3300777 461.27832060000003,582.1640620999999 460.7905276,583.8022457 459.5231936,585.4775387 458.7661135,586.0725094 456.79467800000003,590.4580073999999 456.09082060000003,592.1289058 455.7072757,592.7895503 453.94335970000003,595.4672846999999 451.6813968,596.8354487999999 450.0531009,598.0109858999999 449.5742191,598.749023 447.6173099,601.0354 447.226807,601.6623531 446.74194370000004,604.2441402000001 445.91613800000005,605.4697261000001 443.91955600000006,608.3459468000001 442.5268558000001,610.6625972 442.2480472000001,610.9934077 441.08532750000006,612.1420893000001 439.29846230000004,613.5673823000001 438.14099160000006,614.131103 436.98461950000006,614.4555659 433.90234410000005,615.6062007 432.59692420000005,616.7924800000001 430.65161170000005,618.771728 429.9965824,619.1591792 427.7316898,621.0646968000001 426.2224125,623.3103023000001 426.0271,623.6921382000002 423.372559,626.5944820000002 422.98706100000004,626.7961422000002 421.4274907,627.3124996000001 418.599854,628.4843746000001 416.13134809999997,630.2834469000002 413.1057133,630.5742184000002 410.8979496,629.9404293000002 409.5963139,630.8413082000002 409.3062748,631.9995113000002 408.90307659999996,633.5622554000003 408.8244633,634.0969234000003 406.5969242,637.1286617000003 403.6679691,639.5927730000003 402.8746341,641.4187007000003 402.8507083,644.9353023000002 401.4016116,647.5231929000003 399.50720240000004,650.8442378000002 399.66345240000004,653.1308589000002 399.55175810000003,656.0693355000002 398.8281253,657.8222652000002 398.8063968,661.3798824000002 398.9564212,662.3522945000002 398.7160648,664.5893550000002 397.7709964,667.5192866000002 397.7844241,667.8442378000002 397.6984866,671.7917476000002 397.8930667,673.4086910000002 397.2607425,675.8854976000002 396.8110355,676.8229976000002 396.3901371,678.7380367000002 395.5883793,681.2238765000002 395.37963909999996,684.0024410000002 396.42089889999994,687.1223140000002 398.65405319999996,689.5095210000002 401.63269089999994,690.2644038000002 406.97558639999994,690.7441401000002 408.0494388999999,691.4492182000002 408.86376999999993,693.2326655000003 411.7323002999999,695.6494135000003 413.5820316999999,695.3798823000003 416.6749271999999,696.9814448000003 418.6114505999999,697.0876460000003 419.7893069999999,698.2827144000003 421.0744631999999,700.3281246000003 423.7917483999999,702.9140621000003 425.1962893999999,704.3737789000003 426.7822268999999,705.9887691000002 427.6735842999999,706.8059078000002 428.9365237999999,707.6472164000003 430.2514651999999,708.3410641000003 431.9975589999999,709.9409176000003 432.6992191999999,711.6914059000003 432.7105716999999,712.8623043000003 432.5297855999999,714.4738766000004 430.3415531999999,716.4721676000004 429.3999027999999,717.8879391000004 428.7645267999999,719.1154782000003 427.41589399999987,721.8708493000004 427.1645511999999,722.4597165000004 426.1596683999999,723.9025876000004 425.87182659999985,724.9018552000005 425.49206589999983,726.2253415000005 424.4191898999998,728.7331540000005 424.67407269999984,731.1298825000005 424.9582523999998,731.8361813000005 426.20190469999983,735.1074215000004 427.0432132999998,738.0541988000004 427.60961949999984,743.1789547000004 427.96044959999983,744.3110348000005 430.14660679999986,747.3225094000005 431.73156769999986,749.1845699000005 434.35925319999984,749.4028316000005 436.99267609999987,749.3903804000005 441.1522219999999,749.8044429000005 445.20263699999987,750.3361812000005 445.9404299999999,750.5219722000005 450.13256869999987,750.4575191000005 450.96984899999984,750.3466793000005 454.43090859999984,750.5371090000004 455.6384280999998,749.9155270000005 455.64233429999985,749.6884762000004 455.2617190999998,749.5034176000004 454.8089602999998,749.2587887000004 456.4892581999998,747.8588864000004 455.63647499999985,748.5156247000004 455.42236369999983,749.1259763000004 456.1508792999998,749.3227536000004 456.9042972999998,748.8884274000004 458.27636759999984,747.5117184000004 458.2993167999999,747.4716793000005 458.87646519999987,746.6008297000004 459.23022499999985,746.6943356000004 460.65820349999984,745.0439450000003 460.8625491999998,744.9611813000004 460.8625491999998,745.8505856000004 462.2072757999998,745.0258786000004 462.44482459999983,745.5192868000004 465.27465859999984,744.7023923000004 464.2636722999998,745.7072751000004 462.79882849999984,745.9299313000004 463.44897499999985,746.8427731000004 462.4501956999998,747.7875973000004 465.11669959999983,747.0649411000004 465.8750003999998,746.8674313000004 465.3371585999998,747.4533688000004 465.9462894999998,747.5012204000003 469.6184085999998,747.7863766000003 470.6069339999998,747.5175778000003 471.1503909999998,746.9274899000003 471.3237307999998,747.2333981000003 471.4602053999998,747.5061032000003 472.31640659999977,747.2614743000004 474.7143557999998,745.5498044000004 475.6137698999998,745.0214841000004 478.6032718999998,744.3110349000004 477.7177738999998,744.2668454000004 480.07861369999983,743.3720700000005 484.4755863999998,743.4812009000004 485.57519579999985,743.6635739000004 488.92919969999986,744.0871579000004 492.19018599999987,744.9838864000004 493.12255899999985,744.5190426000004 491.89160199999986,741.9624020000003 491.4277347999999,741.0812985000003 490.31958049999986,741.5458981000004 490.4008792999999,740.2443844000004 491.1645511999999,739.0600582000004 491.9838870999999,739.4121090000004 491.4150393999999,740.5341793000005 492.2089846999999,740.3466793000005 492.85351589999993,741.0944820000004 492.36230499999994,742.1555172000004 493.6010744999999,740.7338863000004 493.6289064999999,740.7231441000005 493.61035179999993,740.7172847000005 494.9101564999999,739.5158687000005 496.62524439999993,740.7753902000005 497.31787139999994,739.4025875000005 497.96508819999997,738.8825680000006 497.96508819999997,740.0771481000006 498.2202152,740.1809079000006 500.8850101,738.7102048000006 502.112305,738.3010251000006 500.8083499,739.5068356000006 502.5732425,738.7204586000006 503.4106448,738.4428707000006 501.563721,740.4873043000007 503.6496585,740.0966793000007 505.5437015,738.1972652000007 507.2636722,736.1711422000008 508.6162113,736.4819332000008 508.4641117,737.0908199000007 510.3359379,736.0695797000008 511.30078169999996,735.2148434000007 513.6928714999999,733.8056637000008 513.7680667999999,733.7294918000008 515.4992679999999,730.6308590000008 516.5888676,729.1044918000008 518.6269535,727.7241207000008 520.0280765,726.5310055000008 520.718262,726.3720700000008 520.9174808,726.7998044000008 522.8803714000001,726.6369626000007 523.2106937000001,725.8974606000007 524.7915042000001,726.2714840000008 524.7915042000001,725.6809078000008 525.3671878000001,726.3134762000008 526.7963870000001,725.4152828000008 527.7045901000001,724.9636226000008 531.9235842000002,724.3320308000008 531.7358401000001,723.5002437000007 533.8078616000001,722.5053707000008 533.3325198000001,722.9179684000007 531.9665530000001,723.6323239000008 533.6684573000001,723.4721677000008 533.5795901000001,723.9951169000008 533.6867678000001,724.5849607000008 536.4133303000001,722.5014646000008 538.9348147000001,722.6909177000008 541.0336917000001,720.0317380000008 542.0488284,718.7314450000008 544.3369143000001,716.9255368000008 544.4233401000001,716.8613278000008 546.9770510000002,715.1350094000009 548.0256350000002,714.0305172000009 548.8117678000002,713.8093258000009 549.1943362000002,714.475585600001 549.8505862000002,715.8217770000009 550.7829592000002,715.5332028000009 551.7185061000001,715.6372067000009 551.5476077000001,715.2402340000009 553.0571292000001,714.8764645000009 553.5964358000001,714.8581540000009 554.6630862000001,714.791747800001 555.9313967,714.068603300001 557.1191408000001,713.531005600001 558.3093263000001,711.679687200001 560.668213,711.097656000001 561.5429689,708.858154000001 560.7031251,708.946777000001 562.5859376,706.987304300001 563.4155274,707.175780900001 564.2299805,706.6816403000009 566.2670899,705.9982907000009 566.786377,706.0795895000009 566.9936524,705.8977047000009 566.255127,705.3852535000009 568.2834473,705.0385738000009 567.6394043,704.5737300000009 569.9147949000001,703.8459468000009 569.9694824000001,702.5810542000008 568.7226562000001,702.5810542000008 569.2761230000001,701.9543452000008 572.3928222000001,702.6176753000009 576.6958007000001,702.0773921000009 577.1433105000001,701.5861812000009 576.2548828000001,701.3281246000008 575.4145508000001,701.0898434000009 575.4592285000001,700.8012692000009 576.9238281000002,700.7524411000009 578.0371093000001,701.5986325000008 578.8085937000001,700.1533200000008 578.2758789000001,699.9018552000008 579.4335937000001,699.7548825000008 579.9604492000001,700.4082028000008 580.9685058000001,699.7717282000008 581.2426757000001,698.7656247000008 583.8674316,699.0825192000008 584.7211914000001,698.8083493000008 585.2468262000001,697.2614743000008 585.1423340000001,696.8159177000008 584.8669434000001,696.9453122000008 582.8195801,698.1645505000008 581.2602539000001,698.4082028000008 578.7082519,698.0512692000008 579.7080078,697.4189450000008 579.6826172,697.4482419000008 582.784668,697.7446286000007 582.5192871,697.2375485000007 582.6416016000001,696.6599118000007 581.9465332000001,696.3203122000007 583.7475586,697.1347653000007 583.9707031,696.9360348000007 585.3605957000001,696.2175289000007 585.8754883000001,696.2783199000007 587.2656250000001,695.8837887000008 587.3964844000001,695.0227047000008 587.7604981000001,693.7653805000008 588.7443848,691.8310543000008 588.8259278,690.8579098000008 591.3930665,690.3535153000008 591.5288087,689.6674801000008 593.2390138000001,684.7524410000009 593.9865724000001,682.8569332000009 595.1035158000001,678.6328121000008 596.1240236000001,677.7917476000008 598.0649416000001,676.7265621000008 598.4296877000002,676.3562008000008 599.2910158000002,675.7333981000008 600.4331056000002,674.3090817000009 600.7958986000002,673.4394528000009 601.4816896000002,672.011230100001 602.4206544000002,670.560302400001 604.3540040000003,667.675780900001 605.9169923000003,663.3925778000009 605.9536134000003,660.9785153000009 606.8105470000004,657.8469235000009 606.9365236000003,655.552001600001 606.5517580000003,654.905028900001 608.3569338000003,650.456786700001 608.4995119000004,647.495116800001 608.8312990000004,646.480956600001 609.3410645,643.1992188"></polygon>
<polygon fill="#cecece" points=" 177.4191132,655.4624023 177.9601899,652.2614746 177.95788579999999,652.1229858 177.8060151,649.5681152000001 177.85151679999998,648.9656982000001 178.73059089999998,646.7326049000002 179.0206452,646.0308837000002 180.57867439999998,644.0532226000003 180.84582529999997,643.4392700000003 180.43634039999998,641.9856567000003 180.78956609999997,639.8960571000002 182.19973759999996,638.4988403000002 184.11990359999996,636.4719848000002 183.44433599999996,635.6561889000002 183.69212349999995,633.6235351000001 184.95179759999996,633.0852050000001 187.42733779999998,631.7894286000001 188.47872939999996,630.7970580000001 189.69906629999997,629.5430297000001 189.80020159999998,629.4523925000002 192.00183119999997,628.5101318000002 193.06321729999996,627.2939453000001 193.43627939999996,626.5401001000001 193.76705939999997,625.9852295000002 193.99502569999996,625.6086426000002 195.36091619999996,625.2496948000002 197.82292179999996,624.0921020000002 198.06471259999995,623.8474121000002 200.23420719999996,621.1159058000002 200.35241699999995,620.8665772000002 203.34135439999994,618.8795777000001 205.62184149999993,617.4683228000001 205.66519169999992,617.3376465000001 206.20317079999992,616.7329712000001 206.78375249999993,616.2756348 207.19216919999994,616.0701294 208.33947749999993,615.8861694000001 210.15650939999992,614.7359008000001 210.48452759999992,614.3892821000001 210.5261840999999,614.3338011000001 211.6559753999999,612.8494261000001 212.1981201999999,612.4603880000001 213.83546459999988,611.0551146 214.3625489999999,610.4274901 215.6651154999999,609.6879881 217.6274109999999,609.989868 219.2227936999999,609.146179 220.5291901999999,607.7284543999999 221.4643708999999,606.4003903999999 221.78610249999988,605.9775387999999 222.10182209999988,605.4653927999999 222.66841149999988,604.6359249999999 223.71719379999988,604.5472408999999 224.91937279999988,604.6940304999999 226.13647489999988,605.1110837 226.47740199999987,605.1625362999999 227.83238249999988,605.7580562999999 229.46418789999987,606.0686642 231.90930199999988,605.7237544999999 234.92344689999987,605.1434932999999 235.98114039999987,605.0761715 237.06112699999989,605.1653439 239.01481659999988,604.4931637000001 241.05166659999986,603.6558834000001 241.56367529999986,603.6173092000001 244.66497839999985,604.4019772000001 247.62025489999985,604.2757565000002 248.18330419999984,604.3577267000002 249.09083589999983,605.1826779000002 249.57655369999983,605.3167111000001 250.63363679999983,604.8164059000002 251.38484219999984,604.5020748000002 253.48393279999985,604.1320797000002 254.43356349999985,604.1366573000001 256.14209009999985,604.3189693000002 257.25543239999985,604.7634883000002 257.9718935999999,605.8624263000002 259.3966372999999,607.0214229000002 260.6604617999999,607.9636836000002 261.3338931999999,608.4779658000002 262.2990420999999,609.4054560000002 262.5738833999999,610.8175043000002 263.17752109999986,612.1785883000002 263.93930089999986,612.5532221000002 264.60165439999986,612.7064814000001 265.92111239999986,613.2613520000001 266.29480009999986,614.7028803000001 266.6769411999999,616.5260615000001 267.4954531999999,617.1387324000001 270.64041169999985,617.0342402000001 270.94754059999985,618.0656733000001 271.7454531999999,619.1204218 272.2221072999999,619.4949946 273.4633487999999,622.256164 273.9064945999999,623.308166 274.1479801999999,623.7241206 275.2585453999999,625.4100337 276.68270919999986,626.2714229 277.70788619999985,627.0115351999999 278.00939989999983,627.4762569 279.24148609999986,628.9157710999999 279.48733569999985,629.3104854999999 279.7926029999999,630.9359737999999 280.31253099999986,631.7076413 281.56961109999986,633.5185544 282.44644219999986,634.9771115 282.6220097999999,635.1853635 283.3540654999999,635.9086301 284.4790654999999,636.805969 285.20782529999985,637.1608884 285.93588319999986,637.3651731 287.87649599999986,638.0895994 288.69839539999987,638.8365476 289.92318789999985,640.0826414 290.3356024999998,640.3265989 291.7615973999998,641.5263059 292.7118536999998,642.9401853 292.8348089999998,643.1806028000001 294.5061346999998,645.0079343000001 294.7488409999998,645.1348874000001 295.7307440999998,645.4600217000001 297.5110480999998,646.1978147000001 299.06524729999984,647.3305051000001 300.97021559999985,647.5136106000001 302.3602301999998,647.1145627000001 303.17974919999983,647.6817624 303.3623663999998,648.4109494 303.6162115999998,649.3948972000001 303.66571109999984,649.7315061 305.06817689999986,651.6403196 306.91226259999985,653.1917112 307.4117742999999,654.3413694 307.42681949999985,656.5554197 308.33917299999985,658.1847532 309.53192199999984,660.2757566 309.43353329999985,661.7153928 309.50387629999983,663.5654905 309.9594731999998,664.6691282 309.97314509999984,666.9090574 309.8786931999998,667.5213011000001 310.0300298999998,668.9297484000001 310.62503109999983,670.774475 310.6165776999998,670.9790648000001 310.6706853999998,673.4644164 310.5481877999998,674.4824828 310.94628959999983,676.0418699999999 311.22943169999985,676.6321409999999 311.4944462999998,677.8378294999999 311.99923759999984,679.4029539999999 312.13064629999985,681.1523435999999 311.47506769999984,683.1166379999999 310.0690617999998,684.6196286999999 308.19369559999984,685.0949094999999 304.8297734999998,685.3969724999998 304.1536565999998,685.8408811999998 303.6409612999998,686.9637449999998 301.8349004999998,688.4853513999998 300.67031919999977,688.3156736999998 298.72299249999975,689.3240354999998 297.5037541999998,689.3908689999998 296.7621770999998,690.1433103999998 295.9530339999998,691.4310911999997 294.2422185999998,693.0592649999998 293.35791069999976,693.9782712999997 292.35937549999977,694.9951169999997 291.79818779999977,695.5095822999997 291.0030217999998,696.0392453999997 290.17511039999977,696.4761349999997 289.0757756999998,697.4833981999997 288.63400319999977,698.5855099999997 288.62686209999976,699.3226925999996 288.7406926999998,700.3374020999996 290.11840879999977,701.5955197999996 290.7112737999998,702.4868771999995 291.1112981999998,703.2597653999995 291.9604192999998,704.9945675999995 292.1186528999998,705.3652950999996 292.7513432999998,706.2737423999996 292.93258719999983,706.9028927999996 293.17166189999983,707.7362057999995 293.84716849999984,709.3151242999995 293.6866765999998,710.8240964999995 293.5077519999998,711.2687985999995 292.7247624999998,713.3283688999995 292.19506889999985,715.1837155999996 291.8384404999999,718.4102780999996 291.6175542999999,719.1230466999996 290.2411504999999,721.0191037999996 289.2432561999999,722.1914670999996 287.5888372999999,722.3288571999996 285.9308172999999,722.3210446999996 283.3119207999999,722.5817258999996 280.7617803999999,722.9165036999996 280.2972417999999,723.0335080999996 277.65783749999986,722.9929196999996 277.13067689999986,722.9231564999995 274.9515997999999,723.0430294999995 274.1913153999999,722.6516720999996 274.1888739999999,722.5087277999996 274.4284979999999,722.3922116999996 274.7135626999999,722.2382199999996 273.6556402999999,721.3568112999997 274.1925665999999,721.7702633999996 274.3273626999999,722.1545406999996 273.8686834999999,722.2784420999997 273.3943182999999,722.0050045999997 272.5304571999999,721.1382442999997 272.5160223999999,721.1130367999997 272.15261909999987,720.5646969999997 271.92990179999987,720.6235958999997 271.03085389999984,719.5844723999998 270.90219179999985,719.5324093999998 270.90219179999985,720.0923458999998 270.05554259999985,719.5731197999999 269.9059758999999,719.8837886999999 268.1242986999999,719.3694453999999 268.7608037999999,720.0021357999999 269.6830754999999,720.1423335999999 269.2737431999999,720.7170405999999 269.9025883999999,721.3118891999999 268.2237248999999,720.8569330999999 267.7463078999999,720.7326044999999 268.0849308999999,721.1015009999999 267.7014164999999,721.1315912999999 265.3894352999999,721.3111566999999 264.7670597999999,721.1419061999999 264.4248966999999,720.7703851999999 264.3157657999999,720.9630121999999 264.2298282999999,721.1347040999999 263.6907657999999,720.9806513999999 262.1810001999999,719.9030147 261.61471599999993,719.5703731 259.73251389999996,719.1230464 260.29000899999994,719.0952144 258.8036197999999,718.5318599000001 256.0352481999999,718.6005855000001 255.3429416999999,718.7153926000001 253.2312320999999,718.9821162000001 251.17808569999988,719.5466914000001 250.59106479999988,719.2540278000001 251.3660891999999,717.6443476000002 251.6581423999999,717.0895991000002 252.35583529999988,717.3820796000002 252.3046572999999,716.5626826000002 251.82383759999988,715.8170161000003 251.30798369999988,716.0386348000003 251.66612269999987,716.7451167000003 251.16625999999988,716.6270747000003 250.76045249999987,717.0978999000004 251.06971759999988,717.7659297000004 250.28977989999987,716.8708491000003 250.27226279999988,716.8640742000003 250.2839509999999,716.8604121000003 249.4655763999999,716.1040034000004 248.38574239999988,716.8969722000004 247.94966149999988,716.0326534000004 247.54217549999987,715.7052608000004 247.54217549999987,716.4573970000004 247.38154619999986,716.5227046000003 245.70376599999986,715.5967402000003 244.93106089999986,715.3391108000003 245.75204479999985,716.0982661000003 244.64085399999985,715.6032099000003 244.11361709999986,715.4284052000003 245.27645889999985,716.7155756000003 243.96313489999986,716.4696650000003 242.77062999999987,715.2738032000003 241.68772899999988,713.9981074000003 240.83615119999988,714.1937861000004 240.93191539999987,714.5771479000003 239.75340279999986,713.9342036000004 239.14593509999986,713.3960566000004 237.63986209999987,712.5087885000004 237.59251409999987,712.4608149000004 236.5025329999999,710.5099482000004 235.8165130999999,709.5488886000004 234.5333251999999,708.6798090000004 233.65116879999988,707.9286493000004 233.21662899999987,707.8285516000004 233.09120179999988,708.0978387000005 231.85534669999987,707.9953607000004 231.64736939999986,707.5297235000005 230.65208439999986,707.7652582000005 230.65208439999986,707.3933710000006 230.28962709999988,707.7916864000006 229.3898010999999,707.2261346000006 228.81799319999988,706.9417718000005 226.1616821999999,706.5441278000005 226.2798767999999,706.0204462000005 224.9753265999999,705.3940424000004 225.2745971999999,705.6538080000005 226.1346282999999,706.1035761000005 225.06309509999988,706.0027460000005 225.1190490999999,706.3320307000005 225.0515594999999,706.7033686000004 223.33489999999992,705.3916010000004 221.7473602999999,705.5108637000004 220.42588809999992,703.8366694000005 219.78675849999993,703.0179438000005 218.34616099999994,701.8809809000005 218.29174819999994,701.8405146000005 216.68391429999994,700.7536616000004 216.02372749999995,700.0582270000004 215.52876289999995,699.9189448000004 215.28790289999995,700.3384394000004 214.87472539999996,701.1860346000004 214.28768929999995,701.0043329000005 213.69866949999997,701.0698236000005 213.80625919999997,700.8198846000005 212.85586549999996,700.5908197000005 212.51631169999996,700.5793451000004 211.84474189999997,700.5375360000004 211.04620369999998,700.0822137000004 210.29838569999998,699.7437127000004 209.54904179999997,698.5781243000004 208.06387329999998,698.2116692000003 207.51312259999997,696.8016961000003 208.04188539999998,696.8574822000003 206.8564606,695.6237786000003 206.334137,695.7424309000003 205.8213501,695.4313347000003 204.5387726,695.0010979000003 204.21183779999998,695.0523064000004 204.0813294,694.9377434000004 204.54631049999998,694.6151116000004 203.26927189999998,694.3968499000005 203.67475899999997,694.1041863000005 202.24215709999996,693.6459343000005 202.20773329999994,692.8495476000005 202.99273699999995,692.8495476000005 202.64427199999994,692.4550164000005 200.68197649999993,692.8726189000006 197.97279379999992,692.5324700000006 197.6910402999999,692.2232049000006 198.2503969999999,692.0607293000006 198.7794802999999,691.9107049000006 198.7513430999999,691.7290032000006 197.8292239999999,691.6982415000007 197.1282962999999,692.2310174000007 196.6425632999999,691.3210443000007 196.97796669999988,691.1627191000007 196.24905429999987,691.0701898000007 195.91734349999987,691.4815057000006 195.28266939999986,691.0808099000006 195.11004669999986,690.4473870000006 193.45748929999985,690.6468499000006 192.91995269999984,690.4742425000006 192.58900479999983,689.5003045000007 192.65480069999984,689.2197869000006 192.82818629999983,689.3012688000006 194.11721829999982,690.0689080000005 195.09898399999983,690.2223504000006 196.70573449999983,689.9976190000006 196.07629419999984,689.5994867000005 196.09227019999983,689.6179193000005 194.13920619999982,689.8045038000005 194.30628989999983,689.4852899000005 194.22927879999983,689.1215814000004 194.66690089999983,688.9077752000004 193.53295919999982,689.4205315000004 193.39247149999983,689.2954094000004 192.51737989999984,688.8430779000004 192.19320689999984,688.8813469000004 191.31796279999983,688.6329338000004 191.23556529999982,688.0908195000004 191.00637829999982,687.2991935000005 190.38691719999983,686.0812980000004 190.33558659999983,685.4686271000004 188.71929939999984,685.1510612000004 188.63383489999984,684.7191154000004 187.55706789999985,681.6245719000004 187.08641059999985,680.4311515000004 186.38317879999985,677.7716056000004 185.74064649999985,677.2420646000004 184.51864639999985,676.5714103000004 184.28898639999986,676.3382560000003 183.74668899999986,675.9461051000003 183.02763379999985,675.0493766000003 182.79920969999984,674.5018302000003 182.36743169999983,673.6025992000003 181.7762603999998,672.6890860000003 180.55900579999982,670.8729849000003 179.57493599999984,668.1762686000003 179.55187999999984,666.6563711000003 179.01234449999984,664.6846914000004 178.93302929999984,663.2397451000004 179.17527779999983,662.8324575000004 178.03872689999983,660.0317983000003 177.94895939999984,658.1671132000004 177.74006659999984,657.5285634000004 177.4191132,655.4624023"></polygon>
<polygon fill="#cecece" points=" 810.3210449,655.4624023 809.7799682,652.2614746 809.7822874999999,652.1229858 809.934143,649.5681152000001 809.8886107999999,648.9656982000001 809.0095213999999,646.7326049000002 808.7194823,646.0308837000002 807.1614379,644.0532226000003 806.894287,643.4392700000003 807.3037719,641.9856567000003 806.9505615,639.8960571000002 805.5404053000001,638.4988403000002 803.6202393000001,636.4719848000002 804.2957764000001,635.6561889000002 804.0480347000001,633.6235351000001 802.7883301000002,633.0852050000001 800.3128052000002,631.7894286000001 799.2614136000002,630.7970580000001 798.0410767000002,629.5430297000001 797.9399414000002,629.4523925000002 795.7382812000002,628.5101318000002 794.6769409000002,627.2939453000001 794.3038940000002,626.5401001000001 793.9730835000003,625.9852295000002 793.7451172000002,625.6086426000002 792.3792114000003,625.2496948000002 789.9172363000002,624.0921020000002 789.6754150000003,623.8474121000002 787.5059204000003,621.1159058000002 787.3876953000002,620.8665772000002 784.3988037000003,618.8795777000001 782.1182861000002,617.4683228000001 782.0749511000002,617.3376465000001 781.5369872000002,616.7329712000001 780.9563598000002,616.2756348 780.5479736000002,616.0701294 779.4006347000002,615.8861694000001 777.5836181000002,614.7359008000001 777.2556152000002,614.3892821000001 777.2139282000002,614.3338011000001 776.0841675000001,612.8494261000001 775.5419922000001,612.4603880000001 773.9046631000001,611.0551146 773.3775635000001,610.4274901 772.0750122000001,609.6879881 770.1127319000001,609.989868 768.5173340000001,609.146179 767.2109375000001,607.7284543999999 766.2757568000001,606.4003903999999 765.9540405,605.9775387999999 765.6383056,605.4653927999999 765.0717162,604.6359249999999 764.0229491,604.5472408999999 762.8207396,604.6940304999999 761.6036375,605.1110837 761.2627562,605.1625362999999 759.9077757,605.7580562999999 758.2759398,606.0686642 755.8308103999999,605.7237544999999 752.8167113,605.1434932999999 751.758972,605.0761715 750.6790159,605.1653439 748.7253416,604.4931637000001 746.6884764,603.6558834000001 746.1764525,603.6173092000001 743.0751341,604.4019772000001 740.1198729,604.2757565000002 739.5568236,604.3577267000002 738.6492919,605.1826779000002 738.1635741,605.3167111000001 737.1065062,604.8164059000002 736.3552855,604.5020748000002 734.2562254000001,604.1320797000002 733.3065794,604.1366573000001 731.5980223,604.3189693000002 730.4847411000001,604.7634883000002 729.7682494000001,605.8624263000002 728.3435057,607.0214229000002 727.0796507,607.9636836000002 726.4062498,608.4779658000002 725.4411008999999,609.4054560000002 725.1662595999999,610.8175043000002 724.5626218999998,612.1785883000002 723.8008420999998,612.5532221000002 723.1384885999998,612.7064814000001 721.8190305999998,613.2613520000001 721.4453122999998,614.7028803000001 721.0632321999998,616.5260615000001 720.2446896999998,617.1387324000001 717.0997311999997,617.0342402000001 716.7926022999998,618.0656733000001 715.9946896999998,619.1204218 715.5180050999998,619.4949946 714.2767941999997,622.256164 713.8336178999997,623.308166 713.5921627999996,623.7241206 712.4815670999997,625.4100337 711.0574337999997,626.2714229 710.0322262999997,627.0115351999999 709.7307736999998,627.4762569 708.4986569999998,628.9157710999999 708.2528073999997,629.3104854999999 707.9475094999997,630.9359737999999 707.4276119999997,631.7076413 706.1705318999997,633.5185544 705.2937007999997,634.9771115 705.1181636999996,635.1853635 704.3861079999996,635.9086301 703.2610469999996,636.805969 702.5322871999996,637.1608884 701.8042598999996,637.3651731 699.8636470999995,638.0895994 699.0417476999995,638.8365476 697.8169551999995,640.0826414 697.4045405999995,640.3265989 695.9785761999995,641.5263059 695.0283198999995,642.9401853 694.9053340999994,643.1806028000001 693.2340083999994,645.0079343000001 692.9912715999994,645.1348874000001 692.0093989999995,645.4600217000001 690.2290644999995,646.1978147000001 688.6748652999995,647.3305051000001 686.7699580999995,647.5136106000001 685.3798823999995,647.1145627000001 684.5603633999995,647.6817624 684.3778071999994,648.4109494 684.1239009999995,649.3948972000001 684.0744014999995,649.7315061 682.6719356999995,651.6403196 680.8278804999995,653.1917112 680.3283687999996,654.3413694 680.3132930999996,656.5554197 679.4009395999996,658.1847532 678.2081905999995,660.2757566 678.3065792999995,661.7153928 678.2362667999995,663.5654905 677.7806393999995,664.6691282 677.7669674999995,666.9090574 677.8614498999995,667.5213011000001 677.7101436999994,668.9297484000001 677.1151119999994,670.774475 677.1235348999994,670.9790648000001 677.0694577999994,673.4644164 677.1919553999994,674.4824828 676.7938230999994,676.0418699999999 676.5106809999994,676.6321409999999 676.2456663999994,677.8378294999999 675.7409056999994,679.4029539999999 675.6094969999995,681.1523435999999 676.2650755999995,683.1166379999999 677.6710814999994,684.6196286999999 679.5464476999995,685.0949094999999 682.9103392999995,685.3969724999998 683.5864867999994,685.8408811999998 684.0991820999994,686.9637449999998 685.9052123999994,688.4853513999998 687.0698241999994,688.3156736999998 689.0171508999994,689.3240354999998 690.2363891999994,689.3908689999998 690.9779662999994,690.1433103999998 691.7871093999994,691.4310911999997 693.4979247999994,693.0592649999998 694.3822631999994,693.9782712999997 695.3807372999994,694.9951169999997 695.9419555999993,695.5095822999997 696.7371215999993,696.0392453999997 697.5650024999993,696.4761349999997 698.6643676999993,697.4833981999997 699.1061401999992,698.5855099999997 699.1132812999992,699.3226925999996 698.9994506999992,700.3374020999996 697.6217040999992,701.5955197999996 697.0288695999992,702.4868771999995 696.6288451999992,703.2597653999995 695.7797240999992,704.9945675999995 695.6214598999992,705.3652950999996 694.9887694999992,706.2737423999996 694.8075560999991,706.9028927999996 694.5684813999992,707.7362057999995 693.8929442999992,709.3151242999995 694.0534667999991,710.8240964999995 694.2323607999991,711.2687985999995 695.0153807999991,713.3283688999995 695.545104899999,715.1837155999996 695.9016722999991,718.4102780999996 696.1225584999991,719.1230466999996 697.4990232999991,721.0191037999996 698.4968870999991,722.1914670999996 700.1513059999991,722.3288571999996 701.809325999999,722.3210446999996 704.428222499999,722.5817258999996 706.978393399999,722.9165036999996 707.4428708999991,723.0335080999996 710.0822751999991,722.9929196999996 710.6094357999991,722.9231564999995 712.7885739999991,723.0430294999995 713.5488278999991,722.6516720999996 713.551269299999,722.5087277999996 713.311645299999,722.3922116999996 713.026550099999,722.2382199999996 714.084533499999,721.3568112999997 713.547607199999,721.7702633999996 713.412780499999,722.1545406999996 713.871459699999,722.2784420999997 714.345824899999,722.0050045999997 715.209655499999,721.1382442999997 715.224120799999,721.1130367999997 715.587524099999,720.5646969999997 715.810241399999,720.6235958999997 716.709289299999,719.5844723999998 716.837951399999,719.5324093999998 716.837951399999,720.0923458999998 717.684631099999,719.5731197999999 717.834167199999,719.8837886999999 719.615844399999,719.3694453999999 718.979308799999,720.0021357999999 718.057067599999,720.1423335999999 718.4663693999989,720.7170405999999 717.8375241999989,721.3118891999999 719.516418199999,720.8569330999999 719.9938351999989,720.7326044999999 719.6552121999989,721.1015009999999 720.0386960999989,721.1315912999999 722.3507077999989,721.3111566999999 722.9730832999988,721.1419061999999 723.3152463999988,720.7703851999999 723.4243772999988,720.9630121999999 723.5103147999988,721.1347040999999 724.0493772999988,720.9806513999999 725.5591428999988,719.9030147 726.1254270999989,719.5703731 728.0076291999989,719.1230464 727.4501340999989,719.0952144 728.9365232999988,718.5318599000001 731.7048948999989,718.6005855000001 732.3972166999988,718.7153926000001 734.5089109999988,718.9821162000001 736.5620725999987,719.5466914000001 737.1490476999987,719.2540278000001 736.3740842999987,717.6443476000002 736.0820310999986,717.0895991000002 735.3842771999987,717.3820796000002 735.4354856999987,716.5626826000002 735.9163206999987,715.8170161000003 736.4321287999986,716.0386348000003 736.0740354999987,716.7451167000003 736.5738523999987,716.6270747000003 736.9796751999987,717.0978999000004 736.6704100999988,717.7659297000004 737.4503783999987,716.8708491000003 737.4678954999987,716.8640742000003 737.4561766999987,716.8604121000003 738.2745360999986,716.1040034000004 739.3543700999986,716.8969722000004 739.7904662999986,716.0326534000004 740.1979369999985,715.7052608000004 740.1979369999985,716.4573970000004 740.3585814999985,716.5227046000003 742.0363768999986,715.5967402000003 742.8090819999986,715.3391108000003 741.9880980999986,716.0982661000003 743.0993041999986,715.6032099000003 743.6265258999987,715.4284052000003 742.4636840999987,716.7155756000003 743.7769775999986,716.4696650000003 744.9694824999987,715.2738032000003 746.0524292999986,713.9981074000003 746.9039917999986,714.1937861000004 746.8082275999986,714.5771479000003 747.9867553999986,713.9342036000004 748.5941772999986,713.3960566000004 750.1002807999986,712.5087885000004 750.1476440999986,712.4608149000004 751.2376098999986,710.5099482000004 751.9236450999986,709.5488886000004 753.2067871999985,708.6798090000004 754.0889892999985,707.9286493000004 754.5234985999984,707.8285516000004 754.6489257999984,708.0978387000005 755.8847655999984,707.9953607000004 756.0927733999985,707.5297235000005 757.0880736999985,707.7652582000005 757.0880736999985,707.3933710000006 757.4505004999985,707.7916864000006 758.3503417999985,707.2261346000006 758.9221801999986,706.9417718000005 761.5784301999986,706.5441278000005 761.4602660999986,706.0204462000005 762.7648314999986,705.3940424000004 762.4655150999987,705.6538080000005 761.6055296999987,706.1035761000005 762.6770628999986,706.0027460000005 762.6210936999986,706.3320307000005 762.6885985999986,706.7033686000004 764.4052123999986,705.3916010000004 765.9927977999986,705.5108637000004 767.3142699999986,703.8366694000005 767.9533690999986,703.0179438000005 769.3939818999986,701.8809809000005 769.4483641999987,701.8405146000005 771.0562132999986,700.7536616000004 771.7164305999986,700.0582270000004 772.2113646999986,699.9189448000004 772.4522093999987,700.3384394000004 772.8654173999987,701.1860346000004 773.4524534999987,701.0043329000005 774.0415037999987,701.0698236000005 773.9338987999987,700.8198846000005 774.8842771999987,700.5908197000005 775.2238157999986,700.5793451000004 775.8953855999987,700.5375360000004 776.6939084999987,700.0822137000004 777.4417722999987,699.7437127000004 778.1911008999987,698.5781243000004 779.6762693999987,698.2116692000003 780.2270505999986,696.8016961000003 779.6982419999986,696.8574822000003 780.8836667999985,695.6237786000003 781.4060056999986,695.7424309000003 781.9187619999985,695.4313347000003 783.2013547999985,695.0010979000003 783.5283200999985,695.0523064000004 783.6588132999985,694.9377434000004 783.1938474999986,694.6151116000004 784.4708860999986,694.3968499000005 784.0653684999985,694.1041863000005 785.4979856999985,693.6459343000005 785.5324094999985,692.8495476000005 784.7473752999985,692.8495476000005 785.0958859999985,692.4550164000005 787.0581662999984,692.8726189000006 789.7673337999985,692.5324700000006 790.0490720999985,692.2232049000006 789.4897458999985,692.0607293000006 788.9606320999985,691.9107049000006 788.9887692999985,691.7290032000006 789.9108883999985,691.6982415000007 790.6118160999985,692.2310174000007 791.0975948999985,691.3210443000007 790.7621456999985,691.1627191000007 791.4910885999985,691.0701898000007 791.8228146999985,691.4815057000006 792.4574582999985,691.0808099000006 792.6300656999985,690.4473870000006 794.2826535999984,690.6468499000006 794.8201901999984,690.4742425000006 795.1511227999983,689.5003045000007 795.0853268999983,689.2197869000006 794.9119259999983,689.3012688000006 793.6229244999982,690.0689080000005 792.6411739999983,690.2223504000006 791.0344234999983,689.9976190000006 791.6638790999983,689.5994867000005 791.6478878999983,689.6179193000005 793.6009518999983,689.8045038000005 793.4338375999984,689.4852899000005 793.5108639999984,689.1215814000004 793.0732418999984,688.9077752000004 794.2071529999984,689.4205315000004 794.3476558999984,689.2954094000004 795.2227779999984,688.8430779000004 795.5469356999984,688.8813469000004 796.4221797999984,688.6329338000004 796.5045772999983,688.0908195000004 796.7337642999984,687.2991935000005 797.3532100999984,686.0812980000004 797.4045406999984,685.4686271000004 799.0208126999984,685.1510612000004 799.1063229999984,684.7191154000004 800.1830441999983,681.6245719000004 800.6537472999984,680.4311515000004 801.3569943999984,677.7716056000004 801.9995114999983,677.2420646000004 803.2214963999984,676.5714103000004 803.4511716999984,676.3382560000003 803.9934690999985,675.9461051000003 804.7125242999984,675.0493766000003 804.9409178999985,674.5018302000003 805.3726805999985,673.6025992000003 805.9638670999985,672.6890860000003 807.1811522999985,670.8729849000003 808.1652220999986,668.1762686000003 808.1882323999986,666.6563711000003 808.7277831999986,664.6846914000004 808.8071288999986,663.2397451000004 808.5648803999986,662.8324575000004 809.7014159999986,660.0317983000003 809.7911986999986,658.1671132000004 810.0000609999986,657.5285634000004 810.3210449,655.4624023"></polygon>
<polygon fill="#cecece" points=" 728.9995728,2067.970459 532.684021,1979.2854004 465.77709960000004,1840.4614258000001 461.66738890000005,1793.5834961 467.50967410000004,1782.5336914 487.5517884,1775.2685546999999 523.1629029000001,1776.4846191999998 530.3640748,1779.5272216999997 536.1676637,1789.5989989999996 569.6477662000001,1897.2669677999995 694.2103883000001,1978.8145751999996 893.2384645000001,1894.3182372999995 925.5402223000001,1807.6593017999994 926.9027711000001,1785.8121337999994 933.9145509000001,1774.7225341999995 952.6531984000001,1770.1309814999995 986.05011,1774.1677246999996 995.9797975,1779.1336670999995 1001.1492921,1789.2298584999994 962.2093507000001,1932.2524414999993 825.2010499,2049.7414551999996 750.9982301,2066.7968750999994 728.9995728,2067.970459"></polygon>
<rect x="411.482666" y="1709.0795898" style="fill:none;" width="639.034668" height="393.5107422"></rect>
<polygon fill="#cecece" points=" 434.9279785,1546.2885742 434.5164795,1543.4389648000001 434.1057129,1540.5878906 433.9783936,1537.434082 433.7839356,1537.0202636 431.7009278,1535.4926756999998 430.41479499999997,1534.8188475999998 427.91699229999995,1534.1821287999999 423.01684579999994,1533.3691405 418.6923828999999,1532.380371 414.3780517999999,1530.611328 411.0638427999999,1528.2578124 408.40405279999993,1525.1833494999998 406.24658209999996,1521.2028807 404.86645509999994,1517.0629881 404.4318847999999,1515.5700682 404.0327148999999,1515.0180662 402.38305669999994,1513.79541 400.25195319999995,1512.9606932 396.40014659999997,1512.5539549 393.90319839999995,1512.243408 389.27026379999995,1511.1342771 383.61889659999997,1508.0756833 381.4868165,1506.0437009 379.14123539999997,1502.8417966 377.5708008,1499.8920896 376.2857666,1496.8784177 375.302124,1494.5632322 374.2313232,1492.9946286999998 372.3171386,1491.5727536999998 371.64331050000004,1491.3332517 370.19030760000004,1491.3081052 366.25463870000004,1491.2187497 363.0457764,1490.7553708 358.01074220000004,1488.9543454 355.55920410000004,1487.3854976999999 353.08740230000006,1485.0871579 350.64245600000004,1481.8327634 348.24499510000004,1477.5219723999999 345.83081050000004,1472.7700192999998 344.30883780000005,1470.8671872999998 342.37402330000003,1469.4174802999999 342.04223620000005,1469.3940427999999 341.06469710000005,1469.6918944 339.85961900000007,1469.9079588999998 337.79455550000006,1470.1928709999997 335.45874010000006,1470.4438475999998 333.74975570000004,1470.6506346999997 329.82153300000004,1471.4106444999998 326.08715800000004,1473.0192870999997 323.33398420000003,1474.7285155999998 320.56616190000005,1477.2744139999998 318.22705060000004,1480.3215330999997 314.91284160000004,1484.7067869999996 310.7906492,1490.1428221999997 308.3366697,1493.3935545999998 306.6077879,1496.7199706 306.9964598,1503.2028808 310.7441405,1507.8222656 312.53100570000004,1509.0822754 325.4184569,1518.5830078000001 330.5751952,1522.3579101 337.1828612,1527.182373 342.0195311,1530.671875 345.21508769999997,1532.9814453 347.9467772,1535.0273436999998 349.8406981,1536.4189453 349.8406981,1536.4191893999998 349.9246825,1536.4584959999997 350.2581786,1536.7297361999997 352.3381347,1538.2604978999998 359.958496,1543.8303220999999 367.0170898,1548.9875487 371.8552246,1552.4714354 375.8912353,1555.4191893 378.06958000000003,1557.0407713 381.6956786,1559.7126463 386.7736815,1563.4257811 393.8876952,1568.6225584 400.5067138,1573.4289548999998 406.3425292,1577.6806638999997 410.1475829,1579.5649411999996 413.8886718,1579.8420407999995 417.3659667,1578.7373044999995 420.6142577,1575.7792966999996 423.7216796,1571.4084470999996 424.3571776,1570.4575193999997 424.3571776,1570.4594724999997 424.5490721,1570.2360837999997 425.581909,1568.7770993999998 428.4301756,1564.7902829999998 431.7021483,1560.2084959 433.3657225,1557.3161619 434.831909,1552.0288084 434.9279785,1546.2885742"></polygon>
<polygon fill="#cecece" points=" 554.9823608,1546.2885742 555.3938598000001,1543.4389648000001 555.8046264000001,1540.5878906 555.9319457,1537.434082 556.1264037000001,1537.0202636 558.2094115000001,1535.4926756999998 559.4955443000001,1534.8188475999998 561.9933470000001,1534.1821287999999 566.8934935000001,1533.3691405 571.2179564,1532.380371 575.5322875,1530.611328 578.8464965000001,1528.2578124 581.5062865000001,1525.1833494999998 583.6637572000001,1521.2028807 585.0438842000001,1517.0629881 585.4784545000001,1515.5700682 585.8776244000001,1515.0180662 587.5272826,1513.79541 589.6583861,1512.9606932 593.5101927000001,1512.5539549 596.0071409000001,1512.243408 600.6400755000001,1511.1342771 606.2914427000001,1508.0756833 608.4235228000001,1506.0437009 610.7691039000001,1502.8417966 612.3395385000001,1499.8920896 613.6245727000002,1496.8784177 614.6082153000002,1494.5632322 615.6790161000002,1492.9946286999998 617.5932007000002,1491.5727536999998 618.2670288000003,1491.3332517 619.7200317000003,1491.3081052 623.6557006000003,1491.2187497 626.8645629000002,1490.7553708 631.8995971000003,1488.9543454 634.3511352000003,1487.3854976999999 636.8229370000003,1485.0871579 639.2678833000002,1481.8327634 641.6653442000003,1477.5219723999999 644.0795288000003,1472.7700192999998 645.6015015000003,1470.8671872999998 647.5363160000003,1469.4174802999999 647.8681031000003,1469.3940427999999 648.8456422000003,1469.6918944 650.0507203000003,1469.9079588999998 652.1157838000003,1470.1928709999997 654.4515992000003,1470.4438475999998 656.1605836000002,1470.6506346999997 660.0888063000002,1471.4106444999998 663.8231813000002,1473.0192870999997 666.5763551000002,1474.7285155999998 669.3441774000003,1477.2744139999998 671.6832887000003,1480.3215330999997 674.9974977000003,1484.7067869999996 679.1196901000003,1490.1428221999997 681.5736696000002,1493.3935545999998 683.3025514000002,1496.7199706 682.9138795000002,1503.2028808 679.1661988000002,1507.8222656 677.3793336000002,1509.0822754 664.4918824000002,1518.5830078000001 659.3351441000002,1522.3579101 652.7274781000002,1527.182373 647.8908082000003,1530.671875 644.6952516000002,1532.9814453 641.9635621000002,1535.0273436999998 640.0696412000002,1536.4189453 640.0696412000002,1536.4191893999998 639.9856568000002,1536.4584959999997 639.6521607000002,1536.7297361999997 637.5722046000002,1538.2604978999998 629.9518433000002,1543.8303220999999 622.8932495000001,1548.9875487 618.0551147000001,1552.4714354 614.0191040000001,1555.4191893 611.8407593000001,1557.0407713 608.2146607000001,1559.7126463 603.1366578000001,1563.4257811 596.0226441000001,1568.6225584 589.4036255000001,1573.4289548999998 583.5678101000001,1577.6806638999997 579.7627564000001,1579.5649411999996 576.0216675,1579.8420407999995 572.5443726000001,1578.7373044999995 569.2960816000001,1575.7792966999996 566.1886597000001,1571.4084470999996 565.5531617000001,1570.4575193999997 565.5531617000001,1570.4594724999997 565.3612672000002,1570.2360837999997 564.3284303000002,1568.7770993999998 561.4801637000002,1564.7902829999998 558.2081910000002,1560.2084959 556.5446168000002,1557.3161619 555.0784303000002,1552.0288084 554.9823608,1546.2885742"></polygon>
<g>
	<line style="fill:#565960;" x1="184.3458557" y1="1384.0986328" x2="301" y2="1472"></line>
	
		<rect x="240.1722565" y="1355.0169678" transform="matrix(0.6017978 -0.7986485 0.7986485 0.6017978 -1043.8765869 762.4627075)" style="fill:#131925;" width="5.0011849" height="146.064621"></rect>
</g>
<g>
	<line style="fill:#565960;" x1="810.1571045" y1="1384.0986328" x2="693.5029907" y2="1472"></line>
	
		<rect x="678.7977905" y="1425.5487061" transform="matrix(0.7986389 -0.6018105 0.6018105 0.7986389 -708.0257568 740.0128174)" style="fill:#131925;" width="146.064621" height="5.0011849"></rect>
</g>
<g>
	<g>
		<polygon fill="#cecece" points=" 465.79245,400.1780701 538.8264161,400.1780701 538.8264161,486.52325440000004 465.79245,486.52325440000004 465.79245,400.1780701"></polygon>
		<polygon fill="#cecece" points=" 501.5174255,402.9945374 502.9797058,405.9298096 512.7997435999999,426.2437439 516.6952514,434.39495850000003 519.6278076,440.34088140000006 522.0925903,445.77526860000006 524.2772827,450.09164430000004 525.9151611,453.64965820000003 527.5457153,456.8306274 528.9912719,460.0881347 530.2194823,462.7740783 531.9364012,466.4018249 532.8175047,468.4823913 532.9242552,468.664978 533.0404661,472.1613769 528.890991,475.9130554 517.2708127999999,479.980133 495.5259702999999,481.36828610000003 479.2503049999999,478.38839720000004 472.9360654999999,475.26095580000003 470.1885373999999,472.18103030000003 470.1690671999999,469.21527100000003 471.9615171999999,465.3351746 474.7302244999999,459.23562630000004 476.9342039999999,454.29348760000005 478.2978208999999,451.6980897 480.0046995999999,447.90716560000004 483.5859678999999,440.45162970000007 485.7110594999999,435.9896851000001 489.24600209999994,428.8534851000001 492.3514402999999,422.4368591000001 493.73208609999995,419.5294189000001 497.19345079999994,412.0670471000001 501.02124009999994,403.8721618000001 501.5174255,402.9945374"></polygon>
	</g>
</g>
<polygon fill="#cecece" points=" 675.791748,1263.4342041 761.2013549,1345.6512450999999 761.2013549,1079.7230224 675.791748,1263.4342041"></polygon>
<g>
	<polygon fill="#cecece" points=" 75.3216553,856.5131836 87.239502,885.1784668 117.0695801,923.032959 162.015625,951.3837891000001 204.90234379999998,961.8437500000001 217.76745609999998,962.5336914000001 219.96801759999997,962.5249023000001 223.79846189999998,960.6772461000002 225.29650879999997,958.6657715000001 227.34924319999996,954.0913086000002 228.91796879999995,932.9658203000001 227.49902349999996,927.8264160000001 225.82153329999997,924.8171387000001 221.78234869999997,922.7717285000001 220.83911139999998,922.7646484 204.57421879999998,921.3413086 183.40771489999997,915.5297852 137.48962409999996,881.0087891 116.01367199999996,825.8342286 115.61376969999996,817.4760742999999 69.6550293,817.4760742999999 71.4835205,839.6757812999999 75.3216553,856.5131836"></polygon>
</g>
<g>
	<polygon fill="#cecece" points=" 895.4711304,537.4952393 883.5532837,508.82992559999997 853.7232055999999,470.9754334 808.7771607,442.6246033 765.8904418999999,432.1646424 753.0253296,431.474701 750.8247680999999,431.4834901 746.9943238,433.3311463 745.4962769,435.3426209 743.4435425,439.9170838 741.8748169,461.04257210000003 743.2937622000001,466.18197640000005 744.9712524,469.19125370000006 749.010437,471.23666390000005 749.9536743,471.24374400000005 766.2185669,472.66708380000006 787.3850708,478.47860720000006 833.3031616,512.9996338000001 854.7791136999999,568.1741943000001 855.1790159999999,576.5323486000001 901.1377561999999,576.5323486000001 899.3092649999999,554.3326416000001 895.4711304,537.4952393"></polygon>
</g>
<rect x="922.9902344" y="629" style="fill:#131925;" width="36.5097656" height="864"></rect>
</svg>